<svg width="24" height="24" viewBox="0 0 24 24" fill="none"
    xmlns="http://www.w3.org/2000/svg">
    <path d="M21 18.15L19 16.15V5H7.84995L5.84995 3H19C19.55 3 20.021 3.19567 20.413 3.587C20.8043 3.979 21 4.45 21 5V18.15ZM19.1 21.9L18.2 21H4.99995C4.44995 21 3.97895 20.8043 3.58695 20.413C3.19562 20.021 2.99995 19.55 2.99995 19V5.8L2.09995 4.9C1.91662 4.71667 1.82495 4.48333 1.82495 4.2C1.82495 3.91667 1.91662 3.68333 2.09995 3.5C2.28328 3.31667 2.51662 3.225 2.79995 3.225C3.08328 3.225 3.31662 3.31667 3.49995 3.5L20.5 20.5C20.6833 20.6833 20.775 20.9167 20.775 21.2C20.775 21.4833 20.6833 21.7167 20.5 21.9C20.3166 22.0833 20.0833 22.175 19.7999 22.175C19.5166 22.175 19.2833 22.0833 19.1 21.9ZM11.25 16L12.075 14.9L4.99995 7.825V19H16.175L14.175 17H6.99995C6.79995 17 6.64995 16.9083 6.54995 16.725C6.44995 16.5417 6.46662 16.3667 6.59995 16.2L8.59995 13.525C8.69995 13.3917 8.83328 13.325 8.99995 13.325C9.16662 13.325 9.29995 13.3917 9.39995 13.525L11.25 16Z" fill="currentColor"/>
</svg>
