<?xml version="1.0" encoding="utf-8"?>
<!-- Generator: Adobe Illustrator 26.0.3, SVG Export Plug-In . SVG Version: 6.00 Build 0)  -->
<svg version="1.0" id="Layer_1" xmlns="http://www.w3.org/2000/svg" xmlns:xlink="http://www.w3.org/1999/xlink" x="0px" y="0px"
	 viewBox="0 0 694.4 528.4" style="enable-background:new 0 0 694.4 528.4;" xml:space="preserve">
<style type="text/css">
	.st0{fill:#301254;}
</style>
<g>
	<path class="st0" d="M288.2,240.2c-13.7,0-26.2,5.3-35.1,14.9c-8.8,9.4-13.6,22.5-13.6,36.7c0,29.4,21.7,51.6,50.5,51.6
		c15.8,0,30.7-6.5,39.9-17.4l0.4-0.5L315,309.6l-0.5,0.6c-3.6,4.4-11.6,11.7-24.6,11.7c-13.9,0-24.6-9.4-27-23.5h73.4v-6.6v0
		C335.1,260.4,316.1,240.2,288.2,240.2z M263.7,280.2c3.5-11.2,13.2-18.7,24.3-18.7c12.6,0,20.9,6.6,23.5,18.7H263.7z M381.9,239
		v3.6h22.4v20.5h-22.4v79.1h-23v-79.1h-17.3v-20.5h17.3v-6.4c0-22.5,17.6-34.6,34.2-34.6c8.4,0,17,2.5,24.1,7l0.5,0.3l-9.7,18.5
		c-3.6-2.4-8-4.5-11.8-4.5C392,222.9,381.9,224.5,381.9,239z M581,289.8c10.6,6.2,26.6,28.9,28.4,51.7l0.1,0.8h-23.1l-0.1-0.6
		c-1.7-17.9-17.5-36.8-24.1-40.5c-6.6,3.7-22.5,22.7-24.1,40.5l-0.1,0.6h-23l0.1-0.8c0.9-11,5.1-22.9,11.9-33.7
		c5.1-8.2,11.5-15.1,16.5-18c-9.7-5.9-24.2-26.1-26.5-46.9l0-0.3h23.7c0.3,16,14,31.1,21.6,35.9c7.6-4.8,21.3-19.9,21.6-35.9h23.7
		l0,0.3C605.2,263.7,590.7,283.9,581,289.8z M459.6,240.2c-28.6,0-50.9,22.7-50.9,51.6c0,28.9,22.4,51.6,50.9,51.6
		c28.6,0,50.9-22.7,50.9-51.6C510.6,262.9,488.2,240.2,459.6,240.2z M459.6,322c-16.4,0-28.3-12.7-28.3-30.2
		c0-17.5,11.9-30.2,28.3-30.2c16.3,0,28.1,12.7,28.1,30.2C487.7,309.3,475.9,322,459.6,322z M233.3,242.6l-25.5,88.1
		c-2.5,8.7-8.8,12.7-16.3,12.7c-7.8,0-13.7-5.1-16.2-12.8L159.1,280L143,330.6c-2.5,7.7-8.3,12.8-16.2,12.8c-7.5,0-13.8-4-16.3-12.7
		L85,242.6h24.7l17.2,70.2l16.5-53.7c3.7-11.9,7.8-14.9,15.7-14.9c7.9,0,12,3,15.7,14.9l16.5,53.7l17.2-70.2H233.3z"/>
</g>
</svg>
