<svg width="535" height="155" viewBox="0 0 535 155" fill="none"
    xmlns="http://www.w3.org/2000/svg">
    <path d="M208.2 43.6C194.5 43.6 182 48.9 173.1 58.5C164.3 67.9 159.5 81 159.5 95.2C159.5 124.6 181.2 146.8 210 146.8C225.8 146.8 240.7 140.3 249.9 129.4L250.3 128.9L235 113L234.5 113.6C230.9 118 222.9 125.3 209.9 125.3C196 125.3 185.3 115.9 182.9 101.8H256.3V95.2C255.1 63.8 236.1 43.6 208.2 43.6ZM183.7 83.6C187.2 72.4 196.9 64.9 208 64.9C220.6 64.9 228.9 71.5 231.5 83.6H183.7ZM301.9 42.4V46H324.3V66.5H301.9V145.6H278.9V66.5H261.6V46H278.9V39.6C278.9 17.1 296.5 5 313.1 5C321.5 5 330.1 7.5 337.2 12L337.7 12.3L328 30.8C324.4 28.4 320 26.3 316.2 26.3C312 26.3 301.9 27.9 301.9 42.4ZM501 93.2C511.6 99.4 527.6 122.1 529.4 144.9L529.5 145.7H506.4L506.3 145.1C504.6 127.2 488.8 108.3 482.2 104.6C475.6 108.3 459.7 127.3 458.1 145.1L458 145.7H435L435.1 144.9C436 133.9 440.2 122 447 111.2C452.1 103 458.5 96.1 463.5 93.2C453.8 87.3 439.3 67.1 437 46.3V46H460.7C461 62 474.7 77.1 482.3 81.9C489.9 77.1 503.6 62 503.9 46H527.6V46.3C525.2 67.1 510.7 87.3 501 93.2ZM379.6 43.6C351 43.6 328.7 66.3 328.7 95.2C328.7 124.1 351.1 146.8 379.6 146.8C408.2 146.8 430.5 124.1 430.5 95.2C430.6 66.3 408.2 43.6 379.6 43.6ZM379.6 125.4C363.2 125.4 351.3 112.7 351.3 95.2C351.3 77.7 363.2 65 379.6 65C395.9 65 407.7 77.7 407.7 95.2C407.7 112.7 395.9 125.4 379.6 125.4ZM153.3 46L127.8 134.1C125.3 142.8 119 146.8 111.5 146.8C103.7 146.8 97.8 141.7 95.3 134L79.1 83.4L63 134C60.5 141.7 54.7 146.8 46.8 146.8C39.3 146.8 33 142.8 30.5 134.1L5 46H29.7L46.9 116.2L63.4 62.5C67.1 50.6 71.2 47.6 79.1 47.6C87 47.6 91.1 50.6 94.8 62.5L111.3 116.2L128.5 46H153.3V46Z" fill="currentColor"/>
</svg>
